<mxfile host="app.diagrams.net" modified="2023-11-09T04:17:34.441Z" agent="Mozilla/5.0 (Windows NT 10.0; Win64; x64) AppleWebKit/537.36 (KHTML, like Gecko) Chrome/119.0.0.0 Safari/537.36" version="22.1.0" etag="LQ4FdMGDDOclclo5X4HU" type="github">
  <diagram name="Page-1" id="0aHf4_iNd8qehFx3OAJz">
    <mxGraphModel>
      <root>
        <mxCell id="0" />
        <mxCell id="1" parent="0" />
      </root>
    </mxGraphModel>
  </diagram>
</mxfile>
